<?xml version="1.0" standalone="no"?>
<!DOCTYPE svg PUBLIC "-//W3C//DTD SVG 20010904//EN"
 "http://www.w3.org/TR/2001/REC-SVG-20010904/DTD/svg10.dtd">
<svg version="1.0" xmlns="http://www.w3.org/2000/svg"
 width="512.000000pt" height="512.000000pt" viewBox="0 0 512.000000 512.000000"
 preserveAspectRatio="xMidYMid meet">
<metadata>
Created by potrace 1.14, written by Peter Selinger 2001-2017
</metadata>
<g transform="translate(0.000000,512.000000) scale(0.100000,-0.100000)"
fill="#000000" stroke="none">
<path d="M1075 4313 c-63 -16 -78 -41 -341 -566 l-256 -512 5 -160 c6 -178 11
-203 70 -325 31 -64 58 -101 112 -156 39 -39 86 -79 103 -88 l32 -17 1 -787
c0 -433 2 -798 5 -812 31 -192 169 -344 355 -394 83 -23 2708 -23 2794 -1 184
48 331 208 359 390 2 17 5 384 5 816 l1 786 50 32 c111 72 221 235 254 378 8
35 15 121 15 201 l2 139 -256 511 c-217 434 -262 516 -292 539 l-36 28 -1481
1 c-815 1 -1490 0 -1501 -3z m3036 -733 l209 -415 -3 -105 c-3 -83 -8 -115
-26 -152 -97 -203 -356 -249 -516 -93 -54 54 -85 122 -92 204 -8 94 -40 145
-106 170 -100 38 -216 -38 -218 -143 -1 -62 -8 -94 -31 -142 -93 -199 -355
-244 -513 -89 -63 62 -92 134 -94 231 -2 81 -78 154 -161 154 -83 0 -159 -73
-161 -154 -2 -132 -70 -240 -185 -296 -72 -35 -199 -35 -268 0 -103 52 -171
148 -182 256 -8 82 -20 116 -52 147 -55 52 -136 62 -193 24 -54 -36 -75 -77
-82 -155 -10 -121 -77 -221 -183 -272 -71 -34 -199 -35 -266 -1 -86 44 -150
117 -175 202 -5 19 -11 74 -12 121 l-2 86 210 421 211 421 1341 -2 1342 -3
208 -415z m-2456 -1016 c169 -154 404 -200 640 -126 60 18 137 64 200 118 l65
55 64 -55 c74 -63 184 -119 273 -140 80 -18 206 -18 286 0 88 21 213 85 280
145 l56 50 65 -55 c74 -63 184 -119 274 -140 77 -18 66 -16 107 -16 l35 0 -2
-748 -3 -749 -29 -37 c-52 -68 -25 -66 -751 -66 l-655 0 -1 423 c0 232 -3 436
-5 452 -28 181 -174 341 -355 389 -72 19 -325 19 -396 0 -111 -29 -218 -104
-284 -200 -34 -50 -70 -154 -75 -214 -1 -25 -3 -227 -3 -449 l-1 -403 -107 4
c-121 4 -146 15 -189 77 l-24 35 0 743 0 743 27 1 c138 4 288 65 393 159 30
27 57 49 60 49 3 0 28 -20 55 -45z m511 -830 c15 -11 37 -33 48 -48 20 -27 21
-41 24 -457 l3 -429 -241 0 -240 0 0 414 c0 444 1 456 52 503 39 37 68 43 200
40 110 -2 130 -5 154 -23z"/>
<path d="M2975 1906 c-103 -45 -125 -190 -40 -265 46 -40 74 -43 382 -39 288
3 286 3 337 72 33 43 29 132 -7 180 -49 64 -53 65 -363 65 -212 0 -286 -3
-309 -13z"/>
</g>
</svg>
